<?xml version="1.0" encoding="UTF-8" standalone="no"?>
<!-- Created with Inkscape (http://www.inkscape.org/) -->

<svg
   xmlns:dc="http://purl.org/dc/elements/1.1/"
   xmlns:cc="http://creativecommons.org/ns#"
   xmlns:rdf="http://www.w3.org/1999/02/22-rdf-syntax-ns#"
   xmlns:svg="http://www.w3.org/2000/svg"
   xmlns="http://www.w3.org/2000/svg"
   xmlns:sodipodi="http://sodipodi.sourceforge.net/DTD/sodipodi-0.dtd"
   xmlns:inkscape="http://www.inkscape.org/namespaces/inkscape"
   version="1.1"
   id="svg15297"
   xml:space="preserve"
   width="816"
   height="1056"
   viewBox="0 0 816 1056"
   sodipodi:docname="intersecting-color-lines-svg.svg"
   inkscape:version="0.92.4 (5da689c313, 2019-01-14)"><metadata
     id="metadata15303"><rdf:RDF><cc:Work
         rdf:about=""><dc:format>image/svg+xml</dc:format><dc:type
           rdf:resource="http://purl.org/dc/dcmitype/StillImage" /><dc:title></dc:title></cc:Work></rdf:RDF></metadata><defs
     id="defs15301"><clipPath
       clipPathUnits="userSpaceOnUse"
       id="clipPath15313"><path
         d="M 0,792 H 612 V 0 H 0 Z"
         id="path15311"
         inkscape:connector-curvature="0" /></clipPath></defs><sodipodi:namedview
     pagecolor="#ffffff"
     bordercolor="#666666"
     borderopacity="1"
     objecttolerance="10"
     gridtolerance="10"
     guidetolerance="10"
     inkscape:pageopacity="0"
     inkscape:pageshadow="2"
     inkscape:window-width="1920"
     inkscape:window-height="1018"
     id="namedview15299"
     showgrid="false"
     inkscape:zoom="0.55805481"
     inkscape:cx="592.88136"
     inkscape:cy="599.59322"
     inkscape:window-x="-8"
     inkscape:window-y="-8"
     inkscape:window-maximized="1"
     inkscape:current-layer="g15305" /><g
     id="g15305"
     inkscape:groupmode="layer"
     inkscape:label="stock-abstract-vector-publicdomainvectors.org"
     transform="matrix(1.3333333,0,0,-1.3333333,0,1056)"><g
       id="g15307"><g
         id="g15309"
         clip-path="url(#clipPath15313)"><path
           d="m 332.804,699.816 c 54.842,-38.18 105.363,-72.623 150.344,-105.448 41.59,-30.334 79.331,-59.921 112.112,-90.418 5.727,-5.299 11.316,-10.649 16.768,-16.05"
           style="fill:none;stroke:#393536;stroke-width:2.15799999;stroke-linecap:butt;stroke-linejoin:miter;stroke-miterlimit:4;stroke-dasharray:none;stroke-opacity:1"
           id="path15315"
           inkscape:connector-curvature="0" /><path
           d="m 331.075,709.68 -8.256,-11.572 11.714,-8.155 8.256,11.571 z"
           style="fill:#393536;fill-opacity:1;fill-rule:nonzero;stroke:none"
           id="path15317"
           inkscape:connector-curvature="0" /><path
           d="M 86.661,792 C 133.128,763.842 177.218,737.018 218.968,711.84 286.55,671.091 349.316,633.713 405.885,598.684 488.314,547.532 558.547,499.922 612.028,447.67"
           style="fill:none;stroke:#393536;stroke-width:2.15799999;stroke-linecap:butt;stroke-linejoin:miter;stroke-miterlimit:4;stroke-dasharray:none;stroke-opacity:1"
           id="path15319"
           inkscape:connector-curvature="0" /><path
           d="m 382.166,564.408 c 91.562,-49.331 168.024,-97.194 224.514,-150.697 1.8,-1.706 3.584,-3.42 5.348,-5.142"
           style="fill:none;stroke:#393536;stroke-width:2.15799999;stroke-linecap:butt;stroke-linejoin:miter;stroke-miterlimit:4;stroke-dasharray:none;stroke-opacity:1"
           id="path15321"
           inkscape:connector-curvature="0" /><path
           d="m 379.307,574.012 -6.864,-12.428 12.583,-6.779 6.863,12.428 z"
           style="fill:#393536;fill-opacity:1;fill-rule:nonzero;stroke:none"
           id="path15323"
           inkscape:connector-curvature="0" /><path
           d="m 183.227,601.886 c 73.356,-27.679 139.352,-55.485 197.853,-83.152 53.627,-25.372 101.913,-51.168 143.775,-78.784 32.938,-21.586 62.088,-44.818 87.173,-69.536"
           style="fill:none;stroke:#393536;stroke-width:2.15799999;stroke-linecap:butt;stroke-linejoin:miter;stroke-miterlimit:4;stroke-dasharray:none;stroke-opacity:1"
           id="path15325"
           inkscape:connector-curvature="0" /><path
           d="m 179.089,611.024 -5.113,-13.225 13.388,-5.051 5.114,13.225 z"
           style="fill:#393536;fill-opacity:1;fill-rule:nonzero;stroke:none"
           id="path15327"
           inkscape:connector-curvature="0" /><path
           d="m 612.028,333.587 c -23.41,23.589 -50.876,45.568 -82.151,65.694 -71.624,46.286 -165.012,86.265 -276.752,122.357"
           style="fill:none;stroke:#393536;stroke-width:2.15799999;stroke-linecap:butt;stroke-linejoin:miter;stroke-miterlimit:4;stroke-dasharray:none;stroke-opacity:1"
           id="path15329"
           inkscape:connector-curvature="0" /><path
           d="m 248.541,530.566 -4.454,-13.456 13.621,-4.4 4.455,13.456 z"
           style="fill:#393536;fill-opacity:1;fill-rule:nonzero;stroke:none"
           id="path15331"
           inkscape:connector-curvature="0" /><path
           d="m 612.028,297.327 c -3.967,4.187 -8.066,8.306 -12.295,12.352 C 548.08,359.203 474.383,399.801 382.419,432.913 326.656,453.167 264.291,470.912 195.96,484.948 136.186,497.239 70.857,506.973 0,510.66"
           style="fill:none;stroke:#393536;stroke-width:2.15799999;stroke-linecap:butt;stroke-linejoin:miter;stroke-miterlimit:4;stroke-dasharray:none;stroke-opacity:1"
           id="path15333"
           inkscape:connector-curvature="0" /><path
           d="m 153.013,337.984 c 109.199,7.014 204.82,-6.865 280.813,-31.636 64.445,-20.897 115.513,-50.932 151.604,-88.204 9.981,-10.277 18.852,-21.1 26.598,-32.379"
           style="fill:none;stroke:#393536;stroke-width:2.15799999;stroke-linecap:butt;stroke-linejoin:miter;stroke-miterlimit:4;stroke-dasharray:none;stroke-opacity:1"
           id="path15335"
           inkscape:connector-curvature="0" /><path
           d="m 145.396,344.588 0.931,-14.126 14.302,0.917 -0.93,14.128 z"
           style="fill:#393536;fill-opacity:1;fill-rule:nonzero;stroke:none"
           id="path15337"
           inkscape:connector-curvature="0" /><path
           d="m 612.028,260.966 c -15.933,17.927 -34.472,34.69 -55.466,49.959 -55.121,40.165 -129.111,72.1 -218.972,95.508"
           style="fill:none;stroke:#393536;stroke-width:2.15799999;stroke-linecap:butt;stroke-linejoin:miter;stroke-miterlimit:4;stroke-dasharray:none;stroke-opacity:1"
           id="path15339"
           inkscape:connector-curvature="0" /><path
           d="m 332.487,415.082 -3.653,-13.688 13.858,-3.611 3.655,13.69 z"
           style="fill:#393536;fill-opacity:1;fill-rule:nonzero;stroke:none"
           id="path15341"
           inkscape:connector-curvature="0" /><path
           d="m 415.911,346.334 c 68.323,-21.987 123.752,-51.863 164.44,-88.608 11.687,-10.603 22.26,-21.818 31.677,-33.542"
           style="fill:none;stroke:#393536;stroke-width:2.15799999;stroke-linecap:butt;stroke-linejoin:miter;stroke-miterlimit:4;stroke-dasharray:none;stroke-opacity:1"
           id="path15343"
           inkscape:connector-curvature="0" /><path
           d="m 411.317,355.258 -4.439,-13.46 13.628,-4.385 4.439,13.459 z"
           style="fill:#393536;fill-opacity:1;fill-rule:nonzero;stroke:none"
           id="path15345"
           inkscape:connector-curvature="0" /><path
           d="m 612.028,143.175 c -1.917,3.665 -3.952,7.275 -6.108,10.831 -26.107,43.314 -70.8,80.462 -130.834,105.174 -71.222,29.739 -166.914,45.636 -278.077,37.04 C 134.604,291.539 68.101,278.741 0,255.28"
           style="fill:none;stroke:#393536;stroke-width:2.15799999;stroke-linecap:butt;stroke-linejoin:miter;stroke-miterlimit:4;stroke-dasharray:none;stroke-opacity:1"
           id="path15347"
           inkscape:connector-curvature="0" /><path
           d="m 293.617,792 c 39.409,-32.347 77.047,-61.988 112.328,-89.472 55.769,-43.477 106.708,-82.661 150.747,-121.009 19.701,-16.981 38.163,-34.206 55.336,-51.703"
           style="fill:none;stroke:#393536;stroke-width:2.15799999;stroke-linecap:butt;stroke-linejoin:miter;stroke-miterlimit:4;stroke-dasharray:none;stroke-opacity:1"
           id="path15349"
           inkscape:connector-curvature="0" /><path
           d="M 571.952,374.742 C 533.301,320.569 498.432,270.666 465.2,226.233 434.492,185.151 404.539,147.872 373.664,115.489 327.02,66.301 276.38,27.319 222.87,-0.123"
           style="fill:none;stroke:#8f8b8b;stroke-width:2.15799999;stroke-linecap:butt;stroke-linejoin:miter;stroke-miterlimit:4;stroke-dasharray:none;stroke-opacity:1"
           id="path15351"
           inkscape:connector-curvature="0" /><path
           d="m 581.938,376.451 -11.715,8.155 -8.256,-11.572 11.715,-8.156 z"
           style="fill:#8f8b8b;fill-opacity:1;fill-rule:nonzero;stroke:none"
           id="path15353"
           inkscape:connector-curvature="0" /><path
           d="M 612.028,532.212 C 602.523,516.91 593.219,501.902 584.125,487.189 542.871,420.432 505.032,358.433 469.57,302.555 412.871,213.402 360.473,138.697 301.497,84.338 262.921,48.582 221.028,20.371 176.836,-0.123"
           style="fill:none;stroke:#748989;stroke-width:2.15799999;stroke-linecap:butt;stroke-linejoin:miter;stroke-miterlimit:4;stroke-dasharray:none;stroke-opacity:1"
           id="path15355"
           inkscape:connector-curvature="0" /><path
           d="M 434.871,325.982 C 384.931,235.54 336.475,160.011 282.311,104.21 237.29,57.851 186.713,23.431 132.696,1.54 131.33,0.979 129.958,0.424 128.585,-0.123"
           style="fill:none;stroke:#8d898b;stroke-width:2.15799999;stroke-linecap:butt;stroke-linejoin:miter;stroke-miterlimit:4;stroke-dasharray:none;stroke-opacity:1"
           id="path15357"
           inkscape:connector-curvature="0" /><path
           d="m 444.594,328.808 -12.582,6.779 -6.863,-12.428 12.581,-6.778 z"
           style="fill:#8d898b;fill-opacity:1;fill-rule:nonzero;stroke:none"
           id="path15359"
           inkscape:connector-curvature="0" /><path
           d="M 472.812,522.495 C 444.791,450.033 416.641,384.844 388.632,327.057 362.947,274.084 336.832,226.387 308.875,185.036 263.286,117.161 210.444,65.57 151.829,32.75 126.92,18.71 100.52,7.73 73.356,-0.123"
           style="fill:none;stroke:#837585;stroke-width:2.15799999;stroke-linecap:butt;stroke-linejoin:miter;stroke-miterlimit:4;stroke-dasharray:none;stroke-opacity:1"
           id="path15361"
           inkscape:connector-curvature="0" /><path
           d="m 482.063,526.581 -13.389,5.051 -5.113,-13.224 13.387,-5.052 z"
           style="fill:#837585;fill-opacity:1;fill-rule:nonzero;stroke:none"
           id="path15363"
           inkscape:connector-curvature="0" /><path
           d="m 0,1.473 c 46.818,5.518 92.775,20.833 134.171,45.664 50.073,29.861 95.134,74.715 133.532,132.938 46.858,70.75 87.33,162.998 123.869,273.375"
           style="fill:none;stroke:#707e85;stroke-width:2.15799999;stroke-linecap:butt;stroke-linejoin:miter;stroke-miterlimit:4;stroke-dasharray:none;stroke-opacity:1"
           id="path15365"
           inkscape:connector-curvature="0" /><path
           d="m 400.609,457.977 -13.621,4.4 -4.454,-13.456 13.621,-4.4 z"
           style="fill:#707e85;fill-opacity:1;fill-rule:nonzero;stroke:none"
           id="path15367"
           inkscape:connector-curvature="0" /><path
           d="m 0,17.508 c 10.776,1.72 21.434,4.004 31.912,6.844 53.023,14.316 102.89,43.706 145.083,86.719 50.133,51.023 91.233,123.82 124.755,214.662 20.504,55.082 38.469,116.687 52.68,184.183 15.698,74.498 27.276,157.73 27.637,249.644"
           style="fill:none;stroke:#798685;stroke-width:2.15799999;stroke-linecap:butt;stroke-linejoin:miter;stroke-miterlimit:4;stroke-dasharray:none;stroke-opacity:1"
           id="path15369"
           inkscape:connector-curvature="0" /><path
           d="m 389.261,766.611 -14.33,0.055 -0.057,-14.156 14.33,-0.055 z"
           style="fill:#798685;fill-opacity:1;fill-rule:nonzero;stroke:none"
           id="path15371"
           inkscape:connector-curvature="0" /><path
           d="M 205.649,552.339 C 212.75,444.473 198.699,350.02 173.622,274.953 152.467,211.295 122.059,160.851 84.328,125.2 59.045,101.24 30.493,83.756 0,72.978"
           style="fill:none;stroke:#6d6f89;stroke-width:2.15799999;stroke-linecap:butt;stroke-linejoin:miter;stroke-miterlimit:4;stroke-dasharray:none;stroke-opacity:1"
           id="path15373"
           inkscape:connector-curvature="0" /><path
           d="m 212.334,559.862 -14.302,-0.919 0.931,-14.127 14.302,0.919 z"
           style="fill:#6d6f89;fill-opacity:1;fill-rule:nonzero;stroke:none"
           id="path15375"
           inkscape:connector-curvature="0" /><path
           d="m 0,34.611 c 19.216,4.065 37.986,10.138 55.942,18.189 45.829,20.469 87.833,54.658 122.312,100.917 40.662,54.448 72.993,127.533 96.688,216.299"
           style="fill:none;stroke:#908a7e;stroke-width:2.15799999;stroke-linecap:butt;stroke-linejoin:miter;stroke-miterlimit:4;stroke-dasharray:none;stroke-opacity:1"
           id="path15377"
           inkscape:connector-curvature="0" /><path
           d="m 283.7,375.055 -13.858,3.61 -3.655,-13.688 13.859,-3.611 z"
           style="fill:#908a7e;fill-opacity:1;fill-rule:nonzero;stroke:none"
           id="path15379"
           inkscape:connector-curvature="0" /><path
           d="M 214.103,292.649 C 191.843,225.161 161.598,170.408 124.399,130.218 91.709,95.061 53.272,70.094 11.959,56.611 8.009,55.283 4.021,54.063 0,52.946"
           style="fill:none;stroke:#837585;stroke-width:2.15799999;stroke-linecap:butt;stroke-linejoin:miter;stroke-miterlimit:4;stroke-dasharray:none;stroke-opacity:1"
           id="path15381"
           inkscape:connector-curvature="0" /><path
           d="m 223.136,297.188 -13.628,4.384 -4.439,-13.459 13.628,-4.385 z"
           style="fill:#837585;fill-opacity:1;fill-rule:nonzero;stroke:none"
           id="path15383"
           inkscape:connector-curvature="0" /><path
           d="m 0,94.868 c 6.622,3.001 13.096,6.366 19.398,10.094 43.849,25.786 81.456,69.934 106.471,129.235 30.107,70.354 46.203,164.878 37.499,274.683 -4.981,64.819 -19.051,134.115 -45.202,205.014 -9.508,25.745 -20.699,51.845 -33.617,78.106"
           style="fill:none;stroke:#6e7089;stroke-width:2.15799999;stroke-linecap:butt;stroke-linejoin:miter;stroke-miterlimit:4;stroke-dasharray:none;stroke-opacity:1"
           id="path15385"
           inkscape:connector-curvature="0" /><path
           d="M 612.028,348.92 C 599.146,333.042 586.719,317.551 574.697,302.494 530.684,247.406 491.015,197.088 452.192,153.588 393.894,87.599 332.76,35.646 267.698,-0.123"
           style="fill:none;stroke:#837879;stroke-width:2.15799999;stroke-linecap:butt;stroke-linejoin:miter;stroke-miterlimit:4;stroke-dasharray:none;stroke-opacity:1"
           id="path15387"
           inkscape:connector-curvature="0" /><path
           d="M 242.861,138.514 C 188.019,176.695 137.5,211.139 92.518,243.963 58.982,268.421 27.949,292.396 0,316.753"
           style="fill:none;stroke:#d5d1d0;stroke-width:2.15799999;stroke-linecap:butt;stroke-linejoin:miter;stroke-miterlimit:4;stroke-dasharray:none;stroke-opacity:1"
           id="path15389"
           inkscape:connector-curvature="0" /><path
           d="m 244.59,128.649 8.257,11.574 -11.716,8.154 -8.256,-11.57 z"
           style="fill:#d5d1d0;fill-opacity:1;fill-rule:nonzero;stroke:none"
           id="path15391"
           inkscape:connector-curvature="0" /><path
           d="M 565.903,-0.123 C 490.548,45.215 420.859,87.796 356.697,126.49 289.115,167.239 226.349,204.617 169.781,239.646 104.886,279.916 47.552,317.991 0,357.864"
           style="fill:none;stroke:#7ecaca;stroke-width:2.15799999;stroke-linecap:butt;stroke-linejoin:miter;stroke-miterlimit:4;stroke-dasharray:none;stroke-opacity:1"
           id="path15393"
           inkscape:connector-curvature="0" /><path
           d="M 193.5,273.923 C 117.745,314.736 52.324,354.548 0,397.38"
           style="fill:none;stroke:#cdcbcf;stroke-width:2.15799999;stroke-linecap:butt;stroke-linejoin:miter;stroke-miterlimit:4;stroke-dasharray:none;stroke-opacity:1"
           id="path15395"
           inkscape:connector-curvature="0" /><path
           d="m 196.359,264.318 6.863,12.428 -12.583,6.778 -6.862,-12.426 z"
           style="fill:#cdcbcf;fill-opacity:1;fill-rule:nonzero;stroke:none"
           id="path15397"
           inkscape:connector-curvature="0" /><path
           d="M 392.439,236.444 C 319.082,264.124 253.087,291.929 194.586,319.598 140.958,344.969 92.672,370.765 50.81,398.38 32.715,410.239 15.763,422.595 0,435.421"
           style="fill:none;stroke:#b28dc0;stroke-width:2.15799999;stroke-linecap:butt;stroke-linejoin:miter;stroke-miterlimit:4;stroke-dasharray:none;stroke-opacity:1"
           id="path15399"
           inkscape:connector-curvature="0" /><path
           d="m 396.577,227.306 5.113,13.224 -13.388,5.052 -5.114,-13.226 z"
           style="fill:#b28dc0;fill-opacity:1;fill-rule:nonzero;stroke:none"
           id="path15401"
           inkscape:connector-curvature="0" /><path
           d="M 0,472.015 C 14.204,460.545 29.478,449.545 45.789,439.049 117.413,392.763 210.8,352.784 322.541,316.692"
           style="fill:none;stroke:#72adc1;stroke-width:2.15799999;stroke-linecap:butt;stroke-linejoin:miter;stroke-miterlimit:4;stroke-dasharray:none;stroke-opacity:1"
           id="path15403"
           inkscape:connector-curvature="0" /><path
           d="m 327.124,307.765 4.454,13.456 -13.621,4.399 -4.454,-13.455 z"
           style="fill:#72adc1;fill-opacity:1;fill-rule:nonzero;stroke:none"
           id="path15405"
           inkscape:connector-curvature="0" /><path
           d="M 0,507.489 C 49.535,467.412 114.734,433.687 193.248,405.418 249.01,385.164 311.375,367.419 379.705,353.383 449.572,339.017 527.026,328.144 612.028,326.337"
           style="fill:none;stroke:#91c2bd;stroke-width:2.15799999;stroke-linecap:butt;stroke-linejoin:miter;stroke-miterlimit:4;stroke-dasharray:none;stroke-opacity:1"
           id="path15407"
           inkscape:connector-curvature="0" /><path
           d="m 422.652,500.346 c -109.2,-7.014 -204.819,6.865 -280.813,31.637 C 83.005,551.06 35.319,577.755 0,610.618"
           style="fill:none;stroke:#6e83ca;stroke-width:2.15799999;stroke-linecap:butt;stroke-linejoin:miter;stroke-miterlimit:4;stroke-dasharray:none;stroke-opacity:1"
           id="path15409"
           inkscape:connector-curvature="0" /><path
           d="m 430.269,493.742 -0.931,14.127 -14.303,-0.919 0.932,-14.127 z"
           style="fill:#6e83ca;fill-opacity:1;fill-rule:nonzero;stroke:none"
           id="path15411"
           inkscape:connector-curvature="0" /><path
           d="m 0,542.27 c 6.121,-5.097 12.491,-10.054 19.104,-14.864 55.121,-40.165 129.11,-72.101 218.971,-95.509"
           style="fill:none;stroke:#dacda6;stroke-width:2.15799999;stroke-linecap:butt;stroke-linejoin:miter;stroke-miterlimit:4;stroke-dasharray:none;stroke-opacity:1"
           id="path15413"
           inkscape:connector-curvature="0" /><path
           d="m 243.177,423.249 3.654,13.688 -13.857,3.609 -3.655,-13.688 z"
           style="fill:#dacda6;fill-opacity:1;fill-rule:nonzero;stroke:none"
           id="path15415"
           inkscape:connector-curvature="0" /><path
           d="M 159.754,491.996 C 94.018,513.15 40.219,541.607 0,576.459"
           style="fill:none;stroke:#b28dc0;stroke-width:2.15799999;stroke-linecap:butt;stroke-linejoin:miter;stroke-miterlimit:4;stroke-dasharray:none;stroke-opacity:1"
           id="path15417"
           inkscape:connector-curvature="0" /><path
           d="m 164.348,483.073 4.44,13.46 -13.628,4.385 -4.44,-13.46 z"
           style="fill:#b28dc0;fill-opacity:1;fill-rule:nonzero;stroke:none"
           id="path15419"
           inkscape:connector-curvature="0" /><path
           d="m 0,645.266 c 25.665,-26.516 59.538,-49.222 100.579,-66.114 71.222,-29.74 166.915,-45.638 278.077,-37.041 65.62,4.921 135.772,18.817 207.547,44.65 8.571,3.089 17.183,6.357 25.825,9.807"
           style="fill:none;stroke:#7285cb;stroke-width:2.15799999;stroke-linecap:butt;stroke-linejoin:miter;stroke-miterlimit:4;stroke-dasharray:none;stroke-opacity:1"
           id="path15421"
           inkscape:connector-curvature="0" /><path
           d="M 337.551,-0.123 C 277.794,50.928 221.245,95.664 169.72,135.802 113.952,179.279 63.012,218.464 18.973,256.811 12.515,262.377 6.19,267.971 0,273.592"
           style="fill:none;stroke:#b3979e;stroke-width:2.15799999;stroke-linecap:butt;stroke-linejoin:miter;stroke-miterlimit:4;stroke-dasharray:none;stroke-opacity:1"
           id="path15423"
           inkscape:connector-curvature="0" /><path
           d="m 3.713,463.587 c 38.652,54.174 73.521,104.077 106.752,148.509 30.709,41.082 60.661,78.362 91.536,110.744 24.619,25.962 50.351,49.081 77.03,69.16"
           style="fill:none;stroke:#352f2e;stroke-width:2.15799999;stroke-linecap:butt;stroke-linejoin:miter;stroke-miterlimit:4;stroke-dasharray:none;stroke-opacity:1"
           id="path15425"
           inkscape:connector-curvature="0" /><path
           d="m 0,457.513 c 2.784,-1.938 5.443,-3.789 5.443,-3.789 l 8.256,11.571 -11.715,8.156 c 0,0 -0.84,-1.177 -1.984,-2.78 z"
           style="fill:#352f2e;fill-opacity:1;fill-rule:nonzero;stroke:none"
           id="path15427"
           inkscape:connector-curvature="0" /><path
           d="m 0,364.841 c 37.985,61.552 73.07,118.899 106.096,170.935 56.698,89.151 109.096,163.857 168.073,218.215 14.884,13.796 30.261,26.469 46.073,38.009"
           style="fill:none;stroke:#951c40;stroke-width:2.15799999;stroke-linecap:butt;stroke-linejoin:miter;stroke-miterlimit:4;stroke-dasharray:none;stroke-opacity:1"
           id="path15429"
           inkscape:connector-curvature="0" /><path
           d="m 140.794,512.347 c 49.941,90.444 98.396,165.973 152.56,221.773 21.37,22.004 43.989,41.318 67.636,57.88"
           style="fill:none;stroke:#3e342c;stroke-width:2.15799999;stroke-linecap:butt;stroke-linejoin:miter;stroke-miterlimit:4;stroke-dasharray:none;stroke-opacity:1"
           id="path15431"
           inkscape:connector-curvature="0" /><path
           d="m 131.072,509.522 12.582,-6.779 6.863,12.429 -12.582,6.779 z"
           style="fill:#3e342c;fill-opacity:1;fill-rule:nonzero;stroke:none"
           id="path15433"
           inkscape:connector-curvature="0" /><path
           d="m 102.854,315.836 c 28.02,72.462 56.171,137.651 84.179,195.438 25.685,52.973 51.8,100.669 79.758,142.02 39.73,59.151 84.967,105.935 134.732,138.706"
           style="fill:none;stroke:#597f18;stroke-width:2.15799999;stroke-linecap:butt;stroke-linejoin:miter;stroke-miterlimit:4;stroke-dasharray:none;stroke-opacity:1"
           id="path15435"
           inkscape:connector-curvature="0" /><path
           d="m 93.603,311.748 13.388,-5.051 5.114,13.225 -13.388,5.051 z"
           style="fill:#597f18;fill-opacity:1;fill-rule:nonzero;stroke:none"
           id="path15437"
           inkscape:connector-curvature="0" /><path
           d="m 442.848,792 c -0.452,-0.268 -0.904,-0.537 -1.354,-0.807 C 391.421,761.332 346.361,716.478 307.963,658.254 261.104,587.505 220.632,495.257 184.094,384.881"
           style="fill:none;stroke:#a3443c;stroke-width:2.15799999;stroke-linecap:butt;stroke-linejoin:miter;stroke-miterlimit:4;stroke-dasharray:none;stroke-opacity:1"
           id="path15439"
           inkscape:connector-curvature="0" /><path
           d="m 175.056,380.353 13.622,-4.4 4.455,13.455 -13.623,4.401 z"
           style="fill:#a3443c;fill-opacity:1;fill-rule:nonzero;stroke:none"
           id="path15441"
           inkscape:connector-curvature="0" /><path
           d="M 486.483,792 C 454.917,776.076 425.269,754.374 398.671,727.259 348.537,676.235 307.438,603.438 273.915,512.596 253.411,457.514 235.447,395.91 221.236,328.414 205.538,253.917 193.959,170.685 193.598,78.77"
           style="fill:none;stroke:#832d4b;stroke-width:2.15799999;stroke-linecap:butt;stroke-linejoin:miter;stroke-miterlimit:4;stroke-dasharray:none;stroke-opacity:1"
           id="path15443"
           inkscape:connector-curvature="0" /><path
           d="m 186.403,71.719 14.332,-0.055 0.057,14.157 -14.331,0.054 z"
           style="fill:#832d4b;fill-opacity:1;fill-rule:nonzero;stroke:none"
           id="path15445"
           inkscape:connector-curvature="0" /><path
           d="m 370.018,285.991 c -7.102,107.866 6.948,202.32 32.026,277.385 21.154,63.658 51.563,114.103 89.294,149.754 33.266,31.525 72.193,51.841 113.755,60.423 2.301,0.482 4.613,0.928 6.935,1.338"
           style="fill:none;stroke:#a88200;stroke-width:2.15799999;stroke-linecap:butt;stroke-linejoin:miter;stroke-miterlimit:4;stroke-dasharray:none;stroke-opacity:1"
           id="path15447"
           inkscape:connector-curvature="0" /><path
           d="m 363.331,278.469 14.303,0.918 -0.932,14.127 -14.302,-0.919 z"
           style="fill:#a88200;fill-opacity:1;fill-rule:nonzero;stroke:none"
           id="path15449"
           inkscape:connector-curvature="0" /><path
           d="M 535.447,792 C 530.144,790.008 524.9,787.852 519.724,785.531 473.895,765.061 431.891,730.871 397.411,684.613 356.75,630.166 324.42,557.079 300.723,468.315"
           style="fill:none;stroke:#383564;stroke-width:2.15799999;stroke-linecap:butt;stroke-linejoin:miter;stroke-miterlimit:4;stroke-dasharray:none;stroke-opacity:1"
           id="path15451"
           inkscape:connector-curvature="0" /><path
           d="m 291.967,463.275 13.857,-3.609 3.655,13.689 -13.858,3.609 z"
           style="fill:#383564;fill-opacity:1;fill-rule:nonzero;stroke:none"
           id="path15453"
           inkscape:connector-curvature="0" /><path
           d="m 361.563,545.681 c 22.258,67.488 52.503,122.24 89.703,162.431 32.69,35.157 71.127,60.125 112.441,73.606 14.272,4.797 29.039,8.214 44.08,10.282"
           style="fill:none;stroke:#597f18;stroke-width:2.15799999;stroke-linecap:butt;stroke-linejoin:miter;stroke-miterlimit:4;stroke-dasharray:none;stroke-opacity:1"
           id="path15455"
           inkscape:connector-curvature="0" /><path
           d="m 352.529,541.144 13.628,-4.386 4.44,13.46 -13.628,4.385 z"
           style="fill:#597f18;fill-opacity:1;fill-rule:nonzero;stroke:none"
           id="path15457"
           inkscape:connector-curvature="0" /><path
           d="M 612.028,755.951 C 592.486,751.232 573.713,743.688 556.268,733.369 512.418,707.582 474.813,663.434 449.797,604.133 419.69,533.78 403.594,439.256 412.298,329.45 c 4.98,-64.819 19.05,-134.114 45.201,-205.013 15.1,-40.884 34.445,-82.666 58.205,-124.56"
           style="fill:none;stroke:#a58000;stroke-width:2.15799999;stroke-linecap:butt;stroke-linejoin:miter;stroke-miterlimit:4;stroke-dasharray:none;stroke-opacity:1"
           id="path15459"
           inkscape:connector-curvature="0" /><path
           d="m 0,534.624 c 0.323,0.404 0.646,0.808 0.968,1.211 44.014,55.089 83.683,105.406 122.505,148.908 36.641,41.475 74.404,77.404 113.556,107.257"
           style="fill:none;stroke:#5e725c;stroke-width:2.15799999;stroke-linecap:butt;stroke-linejoin:miter;stroke-miterlimit:4;stroke-dasharray:none;stroke-opacity:1"
           id="path15461"
           inkscape:connector-curvature="0" /></g></g></g></svg>